<svg width="41" height="40" viewBox="0 0 41 40" fill="none" xmlns="http://www.w3.org/2000/svg">
<rect x="0.671875" width="40" height="40" rx="20" fill="white"/>
<rect x="1.17188" y="0.5" width="39" height="39" rx="19.5" stroke="#A5A5A5"/>
<path d="M21.6719 10H14.6719C14.1414 10 13.6327 10.2107 13.2577 10.5858C12.8826 10.9609 12.6719 11.4696 12.6719 12V28C12.6719 28.5304 12.8826 29.0391 13.2577 29.4142C13.6327 29.7893 14.1414 30 14.6719 30H26.6719C27.2023 30 27.711 29.7893 28.0861 29.4142C28.4612 29.0391 28.6719 28.5304 28.6719 28V17M21.6719 10L28.6719 17M21.6719 10V17H28.6719" stroke="#FDC700" stroke-width="2.5" stroke-linecap="round" stroke-linejoin="round"/>
</svg>
