<svg width="45" height="34" viewBox="0 0 45 34" fill="none" xmlns="http://www.w3.org/2000/svg">
<path d="M11.0802 14.0402C14.7639 14.0402 17.7502 11.0539 17.7502 7.3702C17.7502 3.68646 14.7639 0.700195 11.0802 0.700195C7.39642 0.700195 4.41016 3.68646 4.41016 7.3702C4.41016 11.0539 7.39642 14.0402 11.0802 14.0402Z" fill="#FF8904"/>
<path d="M33.2999 14.0402C36.9836 14.0402 39.9699 11.0539 39.9699 7.3702C39.9699 3.68646 36.9836 0.700195 33.2999 0.700195C29.6162 0.700195 26.6299 3.68646 26.6299 7.3702C26.6299 11.0539 29.6162 14.0402 33.2999 14.0402Z" fill="#FF8904"/>
<path d="M44.38 25.7C44.38 29.7 41.15 32.93 37.16 32.93C35.66 32.93 34.27 32.47 33.11 31.69C33.07 31.66 33.03 31.63 32.98 31.59C32.78 31.46 32.6 31.32 32.42 31.16C29.62 29.1 26.16 27.88 22.42 27.88C18.68 27.88 14.9 29.22 12.04 31.46C11.89 31.61 11.72 31.74 11.55 31.86C10.34 32.77 8.85 33.3 7.23 33.3C3.23 33.3 0 30.07 0 26.07C0 22.07 3.23 18.85 7.23 18.85C8.97 18.85 10.57 19.47 11.83 20.5C11.85 20.51 11.86 20.52 11.87 20.53C14.68 22.63 18.17 23.88 21.96 23.88C25.94 23.88 29.59 22.5 32.47 20.2C32.54 20.15 32.61 20.09 32.69 20.03C32.69 20.02 32.72 20.01 32.74 19.99C33.96 19.04 35.49 18.48 37.16 18.48C41.15 18.48 44.38 21.71 44.38 25.7Z" fill="#FF8904"/>
</svg>
