<svg width="188" height="38" viewBox="0 0 188 38" fill="none" xmlns="http://www.w3.org/2000/svg">
<path d="M178.628 32.7802L176.07 21.8082L184.604 14.4296L173.354 13.4665L168.96 3.12207L164.565 13.4665L153.315 14.4296L161.849 21.8082L159.292 32.7802L168.96 26.9609L178.628 32.7802Z" fill="#FF8903"/>
<path d="M141.081 32.7802L138.523 21.8082L147.057 14.4296L135.808 13.4665L131.413 3.12207L127.018 13.4665L115.769 14.4296L124.303 21.8082L121.745 32.7802L131.413 26.9609L141.081 32.7802Z" fill="#FF8904"/>
<path d="M103.535 32.7802L100.978 21.8082L109.512 14.4296L98.2616 13.4665L93.8671 3.12207L89.4726 13.4665L78.2227 14.4296L86.7567 21.8082L84.1988 32.7802L93.8671 26.9609L103.535 32.7802Z" fill="#FF8904"/>
<path d="M65.9885 32.7802L63.4306 21.8082L71.9647 14.4296L60.7148 13.4665L56.3202 3.12207L51.9257 13.4665L40.6758 14.4296L49.2098 21.8082L46.652 32.7802L56.3202 26.9609L65.9885 32.7802Z" fill="#FF8904"/>
<path d="M28.4416 32.7802L25.8838 21.8082L34.4178 14.4296L23.1679 13.4665L18.7734 3.12207L14.3788 13.4665L3.12891 14.4296L11.663 21.8082L9.10508 32.7802L18.7734 26.9609L28.4416 32.7802Z" fill="#FF8904"/>
</svg>
