<svg width="36" height="36" viewBox="0 0 36 36" fill="none" xmlns="http://www.w3.org/2000/svg">
<path d="M36 18C36 8.05887 27.9411 0 18 0C8.05887 0 0 8.05887 0 18C0 27.9411 8.05887 36 18 36C27.9411 36 36 27.9411 36 18Z" fill="#FF8904"/>
<path d="M25.1996 11.3418L22.4947 25.4628C22.4947 25.4628 22.1162 26.4419 21.0766 25.9724L14.8357 21.0171L14.8068 21.0025C15.6498 20.2187 22.1867 14.1322 22.4724 13.8563C22.9147 13.429 22.6401 13.1747 22.1266 13.4974L12.4707 19.8475L8.74548 18.5495C8.74548 18.5495 8.15924 18.3335 8.10284 17.864C8.0457 17.3937 8.76477 17.1393 8.76477 17.1393L23.9514 10.9699C23.9514 10.9699 25.1996 10.4019 25.1996 11.3418Z" fill="#F7F8FA"/>
</svg>
